<svg width="100%" height="100%" viewBox="0 0 128 128" version="1.1" xmlns="http://www.w3.org/2000/svg"
     xml:space="preserve"
     style="fill-rule:evenodd;clip-rule:evenodd;stroke-linejoin:round;stroke-miterlimit:2;">
    <path d="M74.785,64.002L107.369,31.418L114.088,24.698C115.08,23.707 115.08,22.096 114.088,21.105L106.898,13.915C105.907,12.924 104.296,12.924 103.305,13.915L64.002,53.219L24.698,13.912C23.707,12.92 22.096,12.92 21.105,13.912L13.912,21.102C12.92,22.093 12.92,23.704 13.912,24.695L53.219,64.002L13.912,103.305C12.92,104.296 12.92,105.907 13.912,106.898L21.102,114.088C22.093,115.08 23.704,115.08 24.695,114.088L64.002,74.785L103.305,114.088C104.296,115.08 105.907,115.08 106.898,114.088L114.088,106.898C115.08,105.907 115.08,104.296 114.088,103.305L74.785,64.002Z"
          style="fill-rule:nonzero;"/>
</svg>
