<?xml version="1.0" encoding="utf-8"?>
<svg version="1.1" xmlns:xlink="http://www.w3.org/1999/xlink" width="16px" height="12px" xmlns="http://www.w3.org/2000/svg">
  <g transform="matrix(1 0 0 1 -10 -11 )">
    <path d="M 0.7049861612500001 0.2083437287500005  C 0.5783216287499999 0.36788936500000036  0.6049894650000001 0.6002717212500004  0.7645351012500001 0.7269362537500004  L 14.7764683525 11.851238055  C 14.936013988750002 11.9779025875  15.168365586250001 11.9512039925  15.295030118750002 11.79165835625  C 15.42169465125 11.632112719999999  15.394996056250001 11.39973036375  15.235450420000003 11.27306583125  L 1.2235479274999999 0.1487640300000006  C 1.06400229125 0.022099497500000176  0.8316506937500001 0.04879809250000022  0.7049861612500001 0.2083437287500005  Z M 1.5753357512500004 5.35471322625  C 1.83746181875 4.745413147500001  2.20555178 4.162196488750001  2.6587512025000004 3.6220113212500005  L 3.2378154300000004 4.079178622500001  C 2.8258019737500004 4.567319985000001  2.4909314625000003 5.0944019250000006  2.25344315375 5.64645997  C 2.25328936 5.6467675575000005  2.253166325 5.64710590375  2.25301253125 5.64744425  C 2.18857295 5.796624187500001  2.18857295 5.96576655375  2.25301253125 6.1149464912500004  C 2.253166325 6.115284837500001  2.25332011875 6.1156231837499995  2.25344315375 6.11596153  C 2.7772646662500002 7.333515890000001  3.7746786524999996 8.42966546375  5.02806695625 9.25335403  C 6.6184481250000005 10.299797463749998  8.616598042500001 10.437473628749999  10.31426573125 9.66650556  L 10.956170085 10.173317483750001  C 8.9623263925 11.22821957375  6.5328772825 11.12717708  4.62266663125 9.870282278749999  C 3.24227544875 8.96314522375  2.1521853487500002 7.748574462499999  1.5753357512500004 6.407677515  C 1.4301852099999999 6.07169968875  1.4301852099999999 5.6906910525  1.5753357512500004 5.35471322625  Z M 5.59845721625 2.18077933125  L 4.96624186875 1.6815955775  C 6.990352171250001 0.5293728025000002  9.50389570375 0.5995642700000001  11.468334031250002 1.8921084625000004  C 12.848694455 2.7992455175  13.938784555000002 4.01381627875  14.515664911250003 5.35471322625  C 14.66078469375 5.6906910525  14.66078469375 6.07169968875  14.515664911250003 6.407677515  C 14.231607855 7.067944842499999  13.823131655000001 7.697576454999998  13.31684263 8.2749181925  L 12.737224744999999 7.81725875125  C 13.2024815975 7.292268406250001  13.578107452500003 6.718986823749999  13.837557508750002 6.11596153  C 13.83768054375 6.1156231837499995  13.837834337499999 6.115284837500001  13.8379573725 6.114977249999999  C 13.902396953750003 5.965797312500001  13.902396953750003 5.796624187500001  13.8379573725 5.64744425  C 13.837834337499999 5.64710590375  13.83768054375 5.6467675575000005  13.837526749999999 5.64645997  C 13.31373599625 4.428905610000001  12.31632201 3.3327252775000007  11.062902947500003 2.5090367112500003  C 9.416510095 1.4257442950000003  7.33306616375 1.3163661800000002  5.59845721625 2.18077933125  Z M 5.08540126625 5.849160132500001  C 5.08540126625 5.7481483975000005  5.090414942500001 5.648305495000001  5.10022698375 5.54966218375  L 5.8415436175 6.13500119625  C 5.98214186375 7.248775533750001  6.934063658750001 8.1114046775  8.08585581125 8.1114046775  C 8.1677663625 8.1114046775  8.248661875 8.107036935  8.328388555 8.09851676125  L 9.070135811250001 8.68416336125  C 8.7619023775 8.79132684625  8.43063064 8.8496146775  8.08585581125 8.8496146775  C 6.42986622875 8.8496146775  5.08540126625 7.505149715  5.08540126625 5.849160132500001  Z M 7.4825844475 3.6683955162500004  L 6.80666091625 3.1347312037500004  C 7.19483634125 2.9512860187500003  7.62847319875 2.84873634625  8.08585581125 2.84873634625  C 9.741845393750001 2.84873634625  11.08631035625 4.1931705500000005  11.08631035625 5.849160132500001  C 11.08631035625 6.059826811249998  11.06453316125 6.265418296249999  11.02313188375 6.463904509999999  L 10.346654695000002 5.929778816250002  C 10.347608216249998 5.902987945  10.34810035625 5.87613555625  10.34810035625 5.849160132500001  C 10.34810035625 4.600600952500001  9.33441499125 3.5869463462500004  8.08585581125 3.5869463462500004  C 7.87697314 3.5869463462500004  7.67467284125 3.615305913750001  7.4825844475 3.6683955162500004  Z " fill-rule="nonzero" fill="#262626" stroke="none" transform="matrix(1 0 0 1 10 11 )" />
  </g>
</svg>