<?xml version="1.0" encoding="utf-8"?>
<svg version="1.1" xmlns:xlink="http://www.w3.org/1999/xlink" width="16px" height="12px" xmlns="http://www.w3.org/2000/svg">
  <g transform="matrix(1 0 0 1 -10 -11 )">
    <path d="M 0.7470084949999998 5.4098237345  C 1.39368558375 3.906691715999999  2.6156656437499994 2.5451700842499996  4.163070303249999 1.5283130314999993  C 6.4915905462499985 -0.0038513575000003186  9.508405539749997 -0.0038513575000003186  11.836960262999998 1.5282785512500001  C 13.384364922499998 2.5451700842499996  14.606310502249999 3.906691715999999  15.252987590999995 5.4098237345  C 15.415665410499999 5.78645150525  15.415699890749996 6.213558362000001  15.252987590999995 6.59018613275  C 14.606310502249999 8.09331815125  13.384364922499998 9.454839783  11.836960262999998 10.471696835749999  C 9.508405539749997 12.003861224749999  6.4915905462499985 12.003861224749999  4.1630358229999995 10.471731315999998  C 2.6156656437499994 9.454839783  1.39368558375 8.09331815125  0.7470084949999998 6.59018613275  C 0.5843306755 6.213558362000001  0.5843306755 5.78645150525  0.7470084949999998 5.4098237345  Z M 4.61751999825 2.21988340575  C 3.2124498107499995 3.14319554025  2.0943587439999996 4.3720026897499995  1.5071600864999994 5.736868905750001  C 1.5070221654999991 5.73721370825  1.5068497642499996 5.737592991  1.5067118432499993 5.737937793499999  C 1.4344757194999995 5.905167006000001  1.4344757194999995 6.094808381  1.5067118432499993 6.2620375935000006  C 1.5068497642499996 6.262416876249999  1.5070221654999991 6.262796158999999  1.5071945667499995 6.2631409614999995  C 2.0943587439999996 7.62804165775  3.2124498107499995 8.856814327  4.61751999825 9.78016094175  C 6.670405122749999 11.130924735499999  9.329590963249998 11.130924735499999  11.382096804999998 9.7804023035  C 12.787580755499999 8.856814327  13.905637341999997 7.628007177499999  14.492835999499997 6.2631409614999995  C 14.493008400749998 6.262796158999999  14.493146321749999 6.262416876249999  14.493318723 6.26207207375  C 14.565554846749999 6.094842861249999  14.565554846749999 5.905201486249998  14.493318723 5.73797227375  C 14.493146321749999 5.737592991  14.492973920499997 5.73721370825  14.492835999499997 5.736868905750001  C 13.905637341999997 4.3720026897499995  12.78754627525 3.14319554025  11.382510567999999 2.219848925499999  C 9.329590963249998 0.8690851317499995  6.670405122749999 0.8690851317499995  4.617933761249999 2.2196075637499995  Z M 4.681791184250001 5.964093753249999  C 4.681791184250001 4.107746053749999  6.188888431499999 2.600648806499999  8.045236130999998 2.600648806499999  C 9.901583830499998 2.600648806499999  11.408715557999997 4.107746053749999  11.408715557999997 5.964093753249999  C 11.408715557999997 7.82044145275  9.901583830499998 9.327573180249999  8.045236130999998 9.327573180249999  C 6.188888431499999 9.327573180249999  4.681791184250001 7.82044145275  4.681791184250001 5.964093753249999  Z M 10.581189557999998 5.964093753249999  C 10.581189557999998 4.56447144525  9.444892919249998 3.4281748064999995  8.045236130999998 3.4281748064999995  C 6.645613822999998 3.4281748064999995  5.5093171842499995 4.56447144525  5.5093171842499995 5.964093753249999  C 5.5093171842499995 7.363716061250001  6.645613822999998 8.500047180249998  8.045236130999998 8.500047180249998  C 9.444892919249998 8.500047180249998  10.581189557999998 7.363716061250001  10.581189557999998 5.964093753249999  Z " fill-rule="nonzero" fill="#262626" stroke="none" transform="matrix(1 0 0 1 10 11 )" />
  </g>
</svg>