<?xml version="1.0" encoding="UTF-8"?>
<svg id="Layer_1" data-name="Layer 1" xmlns="http://www.w3.org/2000/svg" viewBox="0 0 1509.75 1509.75">
  <defs>
    <style>
      .cls-1 {
        fill: #006675;
      }

      .cls-2 {
        fill: #0a2330;
      }
    </style>
  </defs>
  <g>
    <path class="cls-2" d="M97.73,1412.01l72.96,72.96h-29.39l-62.54-62.54H45.61v62.54H24.77v-145.93h20.85v62.54h33.15l62.54-62.54h29.39l-72.96,72.96h0Z"/>
    <path class="cls-2" d="M179.35,1380.75v-41.69h20.85v36.69l45.03,88.39h14.18l45.03-88.39v-36.69h20.85v41.69l-53.16,104.23h-39.61l-53.16-104.23h-.01Z"/>
    <path class="cls-2" d="M485.81,1484.98h-20.85v-41.69h-104.23v41.69h-20.85v-104.23c0-22.1,18.34-41.69,41.69-41.69h62.54c22.31,0,41.07,18.55,41.69,41.69v104.23h.01Zm-104.24-125.08c-11.47,0-20.85,9.38-20.85,20.85v41.69h104.23v-41.69c0-11.47-9.38-20.85-20.85-20.85h-62.53Z"/>
    <path class="cls-2" d="M650.32,1443.28c0,22.1-18.34,41.69-41.69,41.69h-104.23v-145.93h104.23c22.31,0,41.07,18.55,41.69,41.69v62.54h0Zm-20.85-62.53c0-11.47-9.38-20.85-20.85-20.85h-83.39v104.23h83.39c11.47,0,20.85-9.38,20.85-20.85v-62.54h0Z"/>
    <path class="cls-2" d="M800.21,1484.98l-41.69-41.69h-68.59v41.69h-20.85v-145.93h104.23c21.89,0,41.69,18.55,41.69,41.69v20.85c0,17.72-11.67,33.77-28.98,39.61l28.98,28.98v14.8h-14.79Zm-6.05-104.23c0-11.47-9.38-20.85-20.85-20.85h-83.39v62.54h83.39c11.47,0,20.85-9.38,20.85-20.85v-20.85h0Z"/>
    <path class="cls-2" d="M853.49,1401.59h104.23v20.85h-104.23v41.69h125.08v20.85h-145.93v-145.93h145.93v20.85h-125.08v41.69h0Z"/>
    <path class="cls-2" d="M1141.18,1443.28c0,22.1-18.34,41.69-41.69,41.69h-104.23v-145.93h104.23c22.31,0,41.07,18.55,41.69,41.69v62.54h0Zm-20.84-62.53c0-11.47-9.38-20.85-20.85-20.85h-83.39v104.23h83.39c11.47,0,20.85-9.38,20.85-20.85v-62.54h0Z"/>
  </g>
  <polygon class="cls-1" points="1464.14 24.77 24.78 24.77 24.78 24.78 24.77 24.78 24.77 1318.21 45.61 1318.21 45.61 45.61 1464.14 45.61 1464.14 1464.14 1162.03 1464.14 1162.03 1484.99 1484.98 1484.99 1484.98 1484.98 1484.99 1484.98 1484.99 45.61 1484.99 24.77 1464.14 24.77"/>
</svg>