<?xml version="1.0" encoding="UTF-8"?>
<svg id="Layer_1" data-name="Layer 1" xmlns="http://www.w3.org/2000/svg" viewBox="0 0 1731.29 1731.29">
  <defs>
    <style>
      .cls-1 {
        fill: #fff;
      }

      .cls-2 {
        fill: #fcf498;
      }
    </style>
  </defs>
  <g>
    <path class="cls-1" d="M208.51,1522.79l72.96,72.96h-29.39l-62.54-62.54h-33.15v62.54h-20.85v-145.93h20.85v62.54h33.15l62.54-62.54h29.39l-72.96,72.96h0Z"/>
    <path class="cls-1" d="M290.13,1491.52v-41.69h20.85v36.69l45.03,88.39h14.18l45.03-88.39v-36.69h20.85v41.69l-53.16,104.23h-39.61l-53.16-104.23h-.01Z"/>
    <path class="cls-1" d="M596.58,1595.75h-20.85v-41.69h-104.23v41.69h-20.85v-104.23c0-22.1,18.34-41.69,41.69-41.69h62.54c22.31,0,41.07,18.55,41.69,41.69v104.23h.01Zm-104.24-125.08c-11.47,0-20.85,9.38-20.85,20.85v41.69h104.23v-41.69c0-11.47-9.38-20.85-20.85-20.85h-62.53Z"/>
    <path class="cls-1" d="M761.1,1554.06c0,22.1-18.34,41.69-41.69,41.69h-104.23v-145.93h104.23c22.31,0,41.07,18.55,41.69,41.69v62.54h0Zm-20.85-62.53c0-11.47-9.38-20.85-20.85-20.85h-83.39v104.23h83.39c11.47,0,20.85-9.38,20.85-20.85v-62.54h0Z"/>
    <path class="cls-1" d="M910.99,1595.75l-41.69-41.69h-68.59v41.69h-20.85v-145.93h104.23c21.89,0,41.69,18.55,41.69,41.69v20.85c0,17.72-11.67,33.77-28.98,39.61l28.98,28.98v14.8h-14.79Zm-6.05-104.23c0-11.47-9.38-20.85-20.85-20.85h-83.39v62.54h83.39c11.47,0,20.85-9.38,20.85-20.85v-20.85h0Z"/>
    <path class="cls-1" d="M964.27,1512.37h104.23v20.85h-104.23v41.69h125.08v20.85h-145.93v-145.93h145.93v20.85h-125.08v41.69h0Z"/>
    <path class="cls-1" d="M1251.95,1554.06c0,22.1-18.34,41.69-41.69,41.69h-104.23v-145.93h104.23c22.31,0,41.07,18.55,41.69,41.69v62.54h0Zm-20.84-62.53c0-11.47-9.38-20.85-20.85-20.85h-83.39v104.23h83.39c11.47,0,20.85-9.38,20.85-20.85v-62.54h0Z"/>
  </g>
  <polygon class="cls-2" points="1574.91 135.54 135.55 135.54 135.55 135.55 135.54 135.55 135.54 1428.98 156.39 1428.98 156.39 156.39 1574.91 156.39 1574.91 1574.91 1272.8 1574.91 1272.8 1595.76 1595.75 1595.76 1595.75 1595.75 1595.76 1595.75 1595.76 156.39 1595.76 135.54 1574.91 135.54"/>
</svg>